<svg width="8" height="4" viewBox="0 0 8 4" fill="none" xmlns="http://www.w3.org/2000/svg">
<path d="M1.16199 -8.2016e-05C1.04066 -8.2016e-05 0.942996 0.0412509 0.868996 0.123918C0.794996 0.206584 0.757996 0.302584 0.757996 0.411918C0.757996 0.439918 0.801328 0.534585 0.887995 0.695918L3.566 3.37292C3.62733 3.43492 3.69366 3.48258 3.765 3.51592C3.83633 3.54925 3.91466 3.56592 4 3.56592C4.08533 3.56592 4.16366 3.54925 4.23499 3.51592C4.30633 3.48258 4.373 3.43492 4.435 3.37292L7.112 0.695918C7.14866 0.658585 7.17966 0.615585 7.205 0.566918C7.22966 0.518252 7.24199 0.465918 7.24199 0.409918C7.24199 0.297918 7.20533 0.201585 7.132 0.120918C7.05733 0.0402515 6.95966 -8.2016e-05 6.83899 -8.2016e-05H1.16199Z" fill="#0B0704"/>
</svg>
