<svg width="44" height="67" viewBox="0 0 44 67" fill="none" xmlns="http://www.w3.org/2000/svg">
<path d="M22.1621 41.3569C22.1621 41.3569 16.5892 58.8378 16.429 59.2785C15.9474 57.6348 12.9804 46.7685 12.4999 45.1646C12.2851 44.3357 12.1374 43.4909 12.058 42.6383C12.023 42.1869 12.0917 41.7334 12.259 41.3127L12.3397 41.1117C12.3397 41.1117 10.9766 41.2719 10.0144 41.4331C9.25223 41.5535 7.76871 41.8341 7.76871 41.8341L7.92888 41.9943C8.45027 42.5963 8.61044 43.1166 9.25444 45.2817L15.4238 66.0543H15.8248C15.8248 66.0543 21.4783 48.7337 21.5976 48.3327C21.7202 48.7337 27.5748 66.0543 27.5748 66.0543H27.936L34.1905 45.327C34.4624 44.1189 34.9662 42.9751 35.674 41.9589L35.7944 41.8385C35.5934 41.7579 34.9527 41.6375 34.1916 41.4375C33.3498 41.2376 32.6274 41.1161 32.6274 41.1161L32.7069 41.3569C32.8553 41.655 32.9242 41.9865 32.9069 42.319C32.8374 43.3236 32.6626 44.318 32.3855 45.2861C32.3855 45.2861 28.4961 58.9184 28.3757 59.315C28.2553 58.914 22.362 41.3525 22.362 41.3525L22.1621 41.3569ZM36.191 13.0871L36.2307 13.2075C36.9929 14.8523 37.4337 16.5755 37.4337 20.7853C37.4337 20.7853 37.1929 33.4952 37.1929 33.6554C32.0877 32.7056 26.9122 32.1835 21.7202 32.0945C16.539 32.1637 11.3738 32.6871 6.28408 33.6587L6.28408 20.7875C6.12273 18.1924 6.57693 15.5959 7.60964 13.2097L7.68475 13.0871H0.627242L0.667008 13.2075C1.42921 14.8523 1.83019 16.5755 1.83019 20.7853L1.83019 52.9832C1.97755 55.5739 1.5388 58.1644 0.546602 60.5621L0.506836 60.6825H7.44394L7.40417 60.6019C6.64198 58.9582 6.20123 57.2349 6.20123 53.0241L6.20123 36.9859C11.282 35.8616 16.4749 35.3239 21.6783 35.383C26.8791 35.3679 32.0669 35.9052 37.1542 36.9859C37.1542 37.1063 37.395 53.0241 37.395 53.0241C37.395 57.2736 36.9532 58.8786 36.2727 60.6019L36.2329 60.7223H43.0066L42.9668 60.6416C42.2046 58.9979 41.8036 57.2736 41.8036 53.0638V20.8681C41.6421 18.273 42.0963 15.6765 43.1292 13.2903L43.1689 13.1699H36.191V13.0871ZM20.0732 0.383794L20.0335 0.504201C19.4734 1.79045 19.2262 3.19111 19.3121 4.59135C19.3121 4.59135 19.2724 24.0329 19.2724 24.1975C20.2754 24.1577 22.034 24.1577 22.6006 24.1577C25.8483 24.1577 29.2561 24.6394 30.6998 23.1956H30.8202L29.6173 26.399C27.2871 26.1418 24.945 26.008 22.6006 25.9981C20.2754 25.9981 18.4704 26.0378 15.2637 26.2786H15.1024L15.1421 26.1582C15.6684 24.8629 15.9012 23.4671 15.8237 22.0711L15.8237 4.59024C15.9337 3.19636 15.7138 1.79619 15.1819 0.503097L15.1421 0.38269L20.0732 0.383794Z" fill="white"/>
</svg>
