<svg width="20" height="20" viewBox="0 0 20 20" fill="none" xmlns="http://www.w3.org/2000/svg">
<circle cx="10" cy="10" r="9.5" stroke="#A48243"/>
<path d="M11.0195 9.05566L16.0762 10.0381L11.0195 11.0195L10.0381 16.0762L9.05566 11.0195L4 10.0381L9.05566 9.05566L10.0381 4L11.0195 9.05566Z" fill="#A48243"/>
<path d="M11.0195 9.05566L16.0762 10.0381L11.0195 11.0195L10.0381 16.0762L9.05566 11.0195L4 10.0381L9.05566 9.05566L10.0381 4L11.0195 9.05566Z" stroke="#A48243"/>
<path d="M10.0104 9.0222L13.0156 6.9948L10.9882 10L13.0156 13.0052L10.0104 10.9778L7.0052 13.0052L9.03261 10L7.0052 6.9948L10.0104 9.0222Z" fill="#A48243"/>
<path d="M10.0104 9.0222L13.0156 6.9948L10.9882 10L13.0156 13.0052L10.0104 10.9778L7.0052 13.0052L9.03261 10L7.0052 6.9948L10.0104 9.0222Z" stroke="#A48243"/>
</svg>
