<svg width="141" height="141" viewBox="0 0 141 141" fill="none" xmlns="http://www.w3.org/2000/svg">
<path d="M130.617 72.3391L137.751 73.0012L137.977 70.5639L138.857 70.6456L138.306 76.5783L137.427 76.4966L137.654 74.0475L130.52 73.3854L130.617 72.3391Z" fill="white"/>
<path d="M137.338 84.5469L137.036 85.5409L133.814 84.5621L132.683 88.2866L135.905 89.2653L135.599 90.2707L127.899 87.9314L128.204 86.926L131.815 88.0228L132.946 84.2983L129.336 83.2016L129.638 82.2076L137.338 84.5469Z" fill="white"/>
<path d="M127.704 100.479L126.95 100.066L128.45 97.3217L125.905 95.9296L124.232 98.9887L123.467 98.5705L125.638 94.6L132.699 98.4611L130.614 102.274L129.849 101.856L131.436 98.9544L129.205 97.7341L127.704 100.479Z" fill="white"/>
<path d="M114.598 111.321L120.014 117.274L119.246 117.973L114.417 112.665L111.873 114.979L111.286 114.334L114.598 111.321Z" fill="white"/>
<path d="M104.875 125.08L104.427 124.347L107.096 122.716L105.584 120.24L102.608 122.057L102.154 121.313L106.016 118.954L110.211 125.823L106.502 128.088L106.047 127.344L108.87 125.62L107.544 123.45L104.875 125.08Z" fill="white"/>
<path d="M93.1573 128.656L95.8403 127.684L95.7636 125.019L96.7739 124.653L96.9454 133.151L95.7667 133.578L90.4426 126.948L91.4866 126.57L93.1573 128.656ZM95.9149 128.521L93.6361 129.347L95.1662 131.256C95.5136 131.689 95.7886 132.097 96.0596 132.494L96.082 132.486C96.0315 131.996 95.9882 131.491 95.9673 130.978L95.9149 128.521Z" fill="white"/>
<path d="M84.0291 129.189L84.9727 137.049C84.3557 137.22 83.6174 137.381 82.7994 137.479C81.3175 137.657 80.2211 137.439 79.4434 136.871C78.6538 136.305 78.1278 135.43 77.9727 134.138C77.8162 132.834 78.0912 131.718 78.7498 130.894C79.407 130.057 80.5916 129.506 82.1446 129.32C82.8796 129.231 83.5004 129.193 84.0291 129.189ZM83.8502 136.415L83.093 130.108C82.8265 130.091 82.4457 130.125 82.0427 130.174C79.8376 130.438 78.7882 131.815 79.0473 133.973C79.2617 135.859 80.4724 136.928 82.6537 136.666C83.1872 136.602 83.5846 136.507 83.8502 136.415Z" fill="white"/>
<path d="M68.8112 138.483L67.7752 138.407L68.3645 130.38L69.4005 130.456L68.8112 138.483Z" fill="white"/>
<path d="M59.9409 129.655L60.8887 129.9L58.8723 137.691L57.7742 137.407L56.2975 132.819C55.9559 131.756 55.7175 130.819 55.554 129.926L55.5279 129.931C55.3511 130.995 55.1289 131.949 54.8148 133.163L53.9711 136.423L53.0233 136.177L55.0397 128.386L56.0569 128.65L57.5074 133.243C57.8264 134.251 58.1162 135.275 58.2908 136.221L58.3285 136.218C58.525 135.221 58.7442 134.279 59.0793 132.984L59.9409 129.655Z" fill="white"/>
<path d="M41.0585 127.532L42.8006 124.078C43.2917 124.138 44.2362 124.307 45.2064 124.796C46.2938 125.345 47.0496 126.073 47.4145 127.1C47.7317 128.009 47.6316 129.162 47.0671 130.281C45.9757 132.419 43.714 133.244 41.3046 132.029C40.473 131.61 39.9141 131.1 39.6802 130.795L40.2858 130.151C40.5836 130.515 40.9935 130.896 41.7184 131.261C43.4669 132.143 45.1561 131.631 46.0647 129.829C46.9842 128.006 46.4291 126.376 44.7553 125.532C44.1476 125.225 43.6888 125.101 43.4218 125.1L42.3411 127.243L43.8017 127.979L43.4253 128.726L41.0585 127.532Z" fill="white"/>
<path d="M24.2184 120.73L23.5138 119.966L25.988 117.683L23.3477 114.822L20.8735 117.106L20.1608 116.334L26.0743 110.875L26.787 111.647L24.0145 114.207L26.6548 117.067L29.4273 114.508L30.1319 115.271L24.2184 120.73Z" fill="white"/>
<path d="M12.756 107.054C11.6595 105.151 12.4093 103.079 14.4787 101.887C16.8791 100.505 18.9921 101.231 20.017 103.01C21.0778 104.852 20.3948 106.968 18.284 108.183C16.0698 109.459 13.8286 108.917 12.756 107.054ZM13.5144 106.673C14.3726 108.163 16.1778 108.115 17.7091 107.233C19.1991 106.375 20.069 104.799 19.2526 103.382C18.4302 101.954 16.6514 101.904 15.0683 102.815C13.6818 103.614 12.6504 105.172 13.5144 106.673Z" fill="white"/>
<path d="M14.0952 91.7094L7.26437 93.8694L8.00238 96.2033L7.15991 96.4697L5.3635 90.7887L6.20596 90.5223L6.94757 92.8675L13.7784 90.7075L14.0952 91.7094Z" fill="white"/>
<path d="M6.15503 78.6389L7.00899 78.5397L7.36992 81.6471L10.252 81.3124L9.84978 77.8491L10.7156 77.7485L11.2377 82.2437L3.24368 83.1722L2.74224 78.8549L3.60806 78.7544L3.98966 82.0398L6.51596 81.7463L6.15503 78.6389Z" fill="white"/>
<path d="M10.0421 70.5691L2.01832 69.9488L2.09838 68.9131L9.25316 69.4662L9.51819 66.0376L10.3872 66.1048L10.0421 70.5691Z" fill="white"/>
<path d="M10.5639 59.4196L9.79316 58.9352C10.193 58.5622 10.6037 57.9693 10.7937 57.2785C11.0756 56.2539 10.6992 55.5064 9.91629 55.291C9.19099 55.0915 8.66253 55.392 7.97141 56.3288C7.17407 57.4717 6.3025 58.0741 5.20879 57.7732C3.99996 57.4407 3.37748 56.1921 3.79233 54.6839C4.01084 53.8895 4.35338 53.3646 4.6441 53.073L5.3855 53.5742C5.17768 53.7895 4.80492 54.2442 4.61174 54.9465C4.3204 56.0056 4.84276 56.5828 5.37235 56.7284C6.09764 56.9279 6.58438 56.5541 7.29335 55.5974C8.16092 54.4243 8.97779 53.9307 10.1175 54.2442C11.3149 54.5736 12.1072 55.7451 11.6036 57.5756C11.3978 58.3239 10.9542 59.0812 10.5639 59.4196Z" fill="white"/>
<path d="M12.9662 33.0326C14.2521 31.2512 16.4488 31.0845 18.3851 32.4822C20.6312 34.1036 20.8367 36.3283 19.6346 37.9935C18.3907 39.7168 16.1811 39.9625 14.206 38.5369C12.1342 37.0413 11.7083 34.7753 12.9662 33.0326ZM13.6256 33.5675C12.6193 34.9617 13.4037 36.5882 14.8366 37.6225C16.2307 38.6289 18.0248 38.7752 18.9822 37.4489C19.9466 36.1128 19.2622 34.4701 17.7809 33.4009C16.4836 32.4644 14.639 32.1637 13.6256 33.5675Z" fill="white"/>
<path d="M26.436 28.8479L21.0638 22.8557L24.2911 19.9624L24.8729 20.6114L22.4191 22.8112L24.2045 24.8027L26.4716 22.7702L27.0455 23.4103L24.7784 25.4428L27.2094 28.1544L26.436 28.8479Z" fill="white"/>
<path d="M43.9127 16.079L41.1466 9.47034L38.8886 10.4154L38.5475 9.60038L44.0436 7.29986L44.3848 8.11492L42.1158 9.06464L44.882 15.6733L43.9127 16.079Z" fill="white"/>
<path d="M51.5861 4.38931L52.6058 4.19078L53.2493 7.49589L57.0701 6.75198L56.4265 3.44687L57.4579 3.24606L58.996 11.1455L57.9646 11.3463L57.2435 7.64271L53.4227 8.38662L54.1438 12.0902L53.1241 12.2887L51.5861 4.38931Z" fill="white"/>
<path d="M70.1928 5.42557L70.1828 6.28521L67.0547 6.24899L67.0211 9.15028L70.5074 9.19066L70.4973 10.0622L65.9723 10.0098L66.0655 1.96262L70.4114 2.01295L70.4013 2.88453L67.0941 2.84623L67.0647 5.38934L70.1928 5.42557Z" fill="white"/>
<path d="M88.181 12.5203L87.1726 12.1158L88.2735 3.88641L89.293 4.29535L88.6638 8.42994C88.5121 9.44974 88.3382 10.4606 88.1823 11.2343L88.2044 11.2432C88.6241 10.5496 89.2125 9.75638 89.8541 8.89447L92.3627 5.52661L93.3712 5.93111L92.7598 10.0857C92.6147 11.0567 92.4586 12.0233 92.2538 12.8546L92.276 12.8634C92.7601 12.1056 93.304 11.3589 93.9101 10.5213L96.4077 7.14904L97.394 7.54464L92.2814 14.165L91.2729 13.7605L91.8912 9.49284C92.0407 8.44644 92.1789 7.65279 92.3814 6.8592L92.3593 6.85031C91.9285 7.53947 91.4689 8.20422 90.8051 9.05723L88.181 12.5203Z" fill="white"/>
<path d="M108.09 13.1139C109.862 14.4127 110.013 16.6106 108.601 18.5367C106.963 20.7708 104.737 20.96 103.081 19.7459C101.366 18.4893 101.137 16.278 102.577 14.3134C104.088 12.2526 106.357 11.8432 108.09 13.1139ZM107.55 13.7694C106.164 12.7529 104.531 13.5254 103.487 14.9507C102.47 16.3374 102.311 18.1303 103.63 19.0974C104.959 20.0716 106.607 19.3992 107.687 17.9257C108.633 16.6353 108.947 14.7929 107.55 13.7694Z" fill="white"/>
<path d="M111.917 26.3866L117.849 21.1078C118.278 21.4288 118.823 21.951 119.299 22.4862C120.038 23.3157 120.362 23.9858 120.357 24.6621C120.359 25.2035 120.1 25.7381 119.636 26.1509C118.842 26.8574 117.871 26.8262 117.094 26.3835L117.067 26.4073C117.319 27.014 117.137 27.6715 116.64 28.3699C115.976 29.3123 115.523 29.971 115.402 30.3023L114.688 29.4995C114.77 29.2506 115.168 28.6564 115.767 27.8201C116.437 26.9035 116.464 26.3045 115.863 25.5761L115.213 24.8447L112.608 27.1626L111.917 26.3866ZM117.995 22.368L115.801 24.3208L116.508 25.1146C117.246 25.9441 118.169 26.0655 118.856 25.4543C119.632 24.7636 119.471 23.9001 118.749 23.0715C118.416 22.6969 118.142 22.4611 117.995 22.368Z" fill="white"/>
<path d="M119.487 35.0655L126.401 30.9467L126.932 31.8392L120.767 35.5118L122.527 38.4661L121.778 38.9122L119.487 35.0655Z" fill="white"/>
<path d="M125.426 44.9437L132.937 42.4432C133.227 43.0135 133.533 43.7046 133.793 44.4863C134.265 45.9024 134.272 47.0201 133.871 47.8959C133.474 48.7831 132.723 49.4738 131.488 49.8849C130.242 50.2997 129.094 50.2539 128.154 49.774C127.202 49.2979 126.425 48.2479 125.931 46.7638C125.697 46.0614 125.535 45.461 125.426 44.9437ZM132.54 43.6702L126.513 45.6766C126.551 45.9409 126.66 46.3072 126.788 46.6924C127.49 48.7996 129.049 49.5516 131.111 48.8652C132.916 48.2769 133.72 46.8764 133.027 44.7918C132.857 44.282 132.683 43.9119 132.54 43.6702Z" fill="white"/>
</svg>
