<svg width="20" height="28" viewBox="0 0 20 28" fill="none" xmlns="http://www.w3.org/2000/svg">
<circle cx="10" cy="14" r="9.5" stroke="#A48243"/>
<path d="M11.0195 13.0557L16.0762 14.0381L11.0195 15.0195L10.0381 20.0762L9.05566 15.0195L4 14.0381L9.05566 13.0557L10.0381 8L11.0195 13.0557Z" fill="#A48243"/>
<path d="M11.0195 13.0557L16.0762 14.0381L11.0195 15.0195L10.0381 20.0762L9.05566 15.0195L4 14.0381L9.05566 13.0557L10.0381 8L11.0195 13.0557Z" stroke="#A48243"/>
<path d="M10.0104 13.0222L13.0156 10.9948L10.9882 14L13.0156 17.0052L10.0104 14.9778L7.0052 17.0052L9.03261 14L7.0052 10.9948L10.0104 13.0222Z" fill="#A48243"/>
<path d="M10.0104 13.0222L13.0156 10.9948L10.9882 14L13.0156 17.0052L10.0104 14.9778L7.0052 17.0052L9.03261 14L7.0052 10.9948L10.0104 13.0222Z" stroke="#A48243"/>
</svg>
